<svg width="54" height="25" viewBox="0 0 54 25" fill="none" xmlns="http://www.w3.org/2000/svg">
<g clip-path="url(#clip0_1_404)">
<circle cx="14.5" cy="14.5" r="14.5" transform="matrix(-1 0 0 1 42.5 16)" fill="#D9D9D9"/>
<path fill-rule="evenodd" clip-rule="evenodd" d="M26.451 39.4249L25.0863 41.9686C21.6886 41.6876 18.7621 40.6104 16.3729 38.6252C16.5529 37.6527 16.7329 36.6802 16.9129 35.7078C15.9907 35.9785 15.0686 36.2492 14.1464 36.5199C11.9736 33.898 10.7193 31.0118 10.3217 27.8792C11.1297 27.3171 11.9376 26.7552 12.7455 26.1932C11.9057 25.7202 11.0659 25.2473 10.226 24.7744C10.6486 21.1867 11.6296 18.1252 13.5445 15.9097C14.4926 16.0923 15.4407 16.2749 16.3888 16.4575C16.1258 15.5256 15.8629 14.5936 15.6 13.6617C17.9314 11.5367 20.7414 10.2257 24.0331 9.73402C24.5908 10.5582 25.1484 11.3823 25.706 12.2065C26.1697 11.3481 26.6332 10.4896 27.0968 9.63121C30.5759 10.1255 33.6454 11.0689 35.785 13.0322C35.605 13.9958 35.425 14.9593 35.245 15.9229C36.1605 15.6539 37.0759 15.3849 37.9913 15.1159C40.1316 17.7702 41.5216 20.6254 41.7969 23.7788L39.4149 25.4332C39.2137 18.0965 33.323 12.2123 26.0848 12.2123C18.7193 12.2123 12.7488 18.305 12.7488 25.8211C12.7488 33.3372 18.7193 39.43 26.0848 39.43C29.8995 39.43 33.3397 37.7952 35.7704 35.1752L36.5576 37.9507C34.0471 40.2032 31.233 41.5153 28.0996 41.9018L26.451 39.4249ZM39.415 25.4379L41.8942 26.835C41.7284 30.1054 40.6462 33.0714 38.6074 35.7199L35.7719 35.1735C38.0334 32.7351 39.4206 29.4436 39.4206 25.8211C39.4206 25.6929 39.4185 25.5652 39.415 25.4379Z" fill="#7687A5" stroke="black" stroke-width="0.0356808" stroke-miterlimit="22.9256"/>
<path fill-rule="evenodd" clip-rule="evenodd" d="M19.171 24.003L22.6984 19.4076L19.2466 16.38C17.5765 17.6115 16.3296 19.2117 15.5126 21.1861L19.171 24.003Z" fill="#223217" stroke="#373435" stroke-width="0.0356808" stroke-miterlimit="22.9256"/>
<path fill-rule="evenodd" clip-rule="evenodd" d="M24.1345 18.8113L29.7985 19.6337L30.6249 15.0589C28.8174 14.2305 26.8286 13.9712 24.6939 14.1696L24.1345 18.8113Z" fill="#223217" stroke="#373435" stroke-width="0.0356808" stroke-miterlimit="22.9256"/>
<path fill-rule="evenodd" clip-rule="evenodd" d="M31.0177 20.6052L33.1493 26.023L37.4526 24.4758C37.2008 22.2927 36.4424 20.4091 35.2354 18.7907L31.0177 20.6052Z" fill="#223217" stroke="#373435" stroke-width="0.0356808" stroke-miterlimit="22.9256"/>
<path fill-rule="evenodd" clip-rule="evenodd" d="M26.06 50.8C25.3215 50.8 24.591 50.765 23.8692 50.6994L25.8825 43.0635L25.4037 43.0533L23.4104 50.654C20.6642 50.3527 18.0546 49.5873 15.6567 48.438L20.1178 41.9533L19.6932 41.7763L15.2418 48.2349C12.8052 47.0093 10.5975 45.3824 8.70079 43.4392L15.0686 38.8999L14.7058 38.5761L8.37692 43.1009C4.15515 38.6101 1.56006 32.5149 1.56006 25.8C1.56006 11.9926 12.5288 0.799988 26.06 0.799988C32.8612 0.799988 39.0143 3.62824 43.4533 8.19428L37.0894 12.7309L37.4522 13.0598L43.7771 8.5327C45.6321 10.5139 47.1709 12.806 48.3115 15.3243L40.8082 17.3622L41.04 17.7992L48.5004 15.7516C49.5651 18.2237 50.2489 20.9052 50.4762 23.7188L42.7532 23.0165L42.8238 23.5048L50.5097 24.1864C50.543 24.7199 50.5601 25.2579 50.5601 25.8C50.5601 28.0709 50.2621 30.2704 49.7061 32.3616L42.6878 29.0049L42.592 29.4881L49.5811 32.8145C48.8153 35.4925 47.6217 37.9841 46.0817 40.2082L40.6167 34.613L40.3647 35.0344L45.8138 40.5878C44.2161 42.8063 42.268 44.7458 40.053 46.3215L36.792 39.1569L36.4141 39.4654L39.6755 46.585C37.4595 48.0997 34.9878 49.2552 32.3402 49.9696L31.6774 42.092L31.2188 42.2462L31.8914 50.0856C30.0223 50.5513 28.0698 50.8 26.06 50.8ZM26.06 43.0388C19.7462 43.0388 14.2422 39.505 11.3421 34.2706L3.84452 36.307L3.64498 35.8826L11.0998 33.817C10.2731 32.2145 9.68619 30.4634 9.38819 28.6128L1.66415 27.9104L1.62938 27.4423L9.31664 28.1244C9.21611 27.3642 9.16404 26.5883 9.16404 25.8C9.16404 24.7125 9.26353 23.6489 9.45252 22.6174L2.43537 19.2613L2.55653 18.8118L9.54861 22.1321C9.93847 20.2967 10.6151 18.5704 11.5277 17.004L6.05364 11.3995L6.32072 11.0191L11.779 16.587C12.7502 15.0229 13.9614 13.6295 15.3597 12.4602L12.1002 5.29878L12.4734 5.01532L15.7364 12.1543C17.1552 11.0349 18.7533 10.1408 20.4794 9.52438L19.8161 1.6417L20.2639 1.51993L20.979 9.35486C22.5826 8.83932 24.2894 8.5612 26.06 8.5612C26.1323 8.5612 26.2043 8.56286 26.2764 8.56398L28.2935 0.918257L28.7521 0.964591L26.735 8.57607C28.5973 8.65074 30.3819 9.03368 32.0419 9.67492L36.5098 3.18539L36.9034 3.38348L32.4897 9.85584C38.6319 12.4365 42.9561 18.602 42.9561 25.8C42.9561 35.321 35.3917 43.0388 26.06 43.0388Z" fill="#2F2E2C" stroke="#373435" stroke-width="0.0356808" stroke-miterlimit="22.9256"/>
<path fill-rule="evenodd" clip-rule="evenodd" d="M9.47011 22.626L9.56665 22.1409L2.55646 18.812L2.43531 19.2615L9.47011 22.626Z" fill="#6D6C68" stroke="#373435" stroke-width="0.0356808" stroke-miterlimit="22.9256"/>
<path fill-rule="evenodd" clip-rule="evenodd" d="M11.5412 17.0179L6.05366 11.3996L6.32074 11.0192L11.7932 16.6015L11.5412 17.0179Z" fill="#6D6C68" stroke="#373435" stroke-width="0.0356808" stroke-miterlimit="22.9256"/>
<path fill-rule="evenodd" clip-rule="evenodd" d="M15.3658 12.4738L15.7438 12.1705L12.4734 5.01523L12.1001 5.29869L15.3658 12.4738Z" fill="#6D6C68" stroke="#373435" stroke-width="0.0356808" stroke-miterlimit="22.9256"/>
<path fill-rule="evenodd" clip-rule="evenodd" d="M20.4805 9.53864L20.981 9.37628L20.2638 1.51981L19.816 1.64158L20.4805 9.53864Z" fill="#6D6C68" stroke="#373435" stroke-width="0.0356808" stroke-miterlimit="22.9256"/>
<path fill-rule="evenodd" clip-rule="evenodd" d="M26.2755 8.56737L26.7326 8.58527L28.7521 0.964709L28.2935 0.918375L26.2755 8.56737Z" fill="#6D6C68" stroke="#373435" stroke-width="0.0356808" stroke-miterlimit="22.9256"/>
<path fill-rule="evenodd" clip-rule="evenodd" d="M32.4887 9.85736L32.0402 9.67746L36.5099 3.18532L36.9034 3.38341L32.4887 9.85736Z" fill="#6D6C68" stroke="#373435" stroke-width="0.0356808" stroke-miterlimit="22.9256"/>
<path fill-rule="evenodd" clip-rule="evenodd" d="M37.0893 12.731L37.4522 13.0599L43.7863 8.52623L43.4552 8.19306L37.0893 12.731Z" fill="#6D6C68" stroke="#373435" stroke-width="0.0356808" stroke-miterlimit="22.9256"/>
<path fill-rule="evenodd" clip-rule="evenodd" d="M41.04 17.799L40.8082 17.3621L48.3214 15.3214L48.5129 15.748L41.04 17.799Z" fill="#6D6C68" stroke="#373435" stroke-width="0.0356808" stroke-miterlimit="22.9256"/>
<path fill-rule="evenodd" clip-rule="evenodd" d="M42.8235 23.505L42.753 23.0166L50.493 23.7204L50.5333 24.1886L42.8235 23.505Z" fill="#6D6C68" stroke="#373435" stroke-width="0.0356808" stroke-miterlimit="22.9256"/>
<path fill-rule="evenodd" clip-rule="evenodd" d="M26.0601 39.4089C18.6947 39.4089 12.7242 33.3162 12.7242 25.8001C12.7242 18.284 18.6947 12.1912 26.0601 12.1912C33.4255 12.1912 39.396 18.284 39.396 25.8001C39.396 33.3162 33.4255 39.4089 26.0601 39.4089ZM32.9377 27.5908L29.4104 32.1811L32.8621 35.2139C34.6714 33.8179 35.8581 32.1992 36.576 30.4129L32.9377 27.5908ZM31.0178 20.6052L33.1494 26.023L37.4528 24.4758C37.2009 22.2927 36.4425 20.4091 35.2355 18.7907L31.0178 20.6052ZM24.1344 18.8113L29.7984 19.6337L30.6248 15.0589C28.8173 14.2305 26.8285 13.9712 24.6938 14.1696L24.1344 18.8113ZM19.171 24.003L22.6983 19.4076L19.2465 16.3799C17.5764 17.6115 16.3296 19.2116 15.5126 21.1861L19.171 24.003ZM21.0908 30.9834L18.9593 25.5656L14.6559 27.1179C14.8865 29.2831 15.6399 31.1704 16.8732 32.8031L21.0908 30.9834ZM27.9742 32.7774L22.3154 31.9549L21.4789 36.5246C23.5379 37.3863 25.5104 37.6418 27.4149 37.419L27.9742 32.7774ZM26.0601 30.6595C23.4341 30.6595 21.3055 28.4839 21.3055 25.8001C21.3055 23.1163 23.4341 20.9407 26.0601 20.9407C28.686 20.9407 30.8146 23.1163 30.8146 25.8001C30.8146 28.4839 28.686 30.6595 26.0601 30.6595Z" fill="#A39FAE" stroke="black" stroke-width="0.0356808" stroke-miterlimit="22.9256"/>
<path fill-rule="evenodd" clip-rule="evenodd" d="M26.0601 30.2311C23.6651 30.2311 21.7235 28.2473 21.7235 25.8002C21.7235 23.353 23.6651 21.3693 26.0601 21.3693C28.4551 21.3693 30.3966 23.353 30.3966 25.8002C30.3966 28.2473 28.4551 30.2311 26.0601 30.2311ZM29.362 28.141C29.2276 28.0448 29.0932 27.9486 28.9587 27.8524C29.1917 27.5067 29.3646 27.1284 29.4636 26.71C29.626 26.7533 29.7884 26.7966 29.9508 26.8399C30.0573 26.4213 30.0956 26.0471 30.0802 25.7078C29.9116 25.7146 29.743 25.7214 29.5745 25.7282C29.5645 25.2679 29.4822 24.8622 29.3426 24.4997C29.4981 24.438 29.6536 24.3763 29.8091 24.3146C29.7052 24.0098 29.5334 23.6849 29.2519 23.3277C29.1242 23.4258 28.9965 23.5239 28.8688 23.6221C28.5712 23.2391 28.2699 22.9854 27.9669 22.7828C28.0575 22.6397 28.1481 22.4964 28.2387 22.3533C27.9169 22.1313 27.5749 21.9787 27.2161 21.8833C27.16 22.0373 27.104 22.1914 27.0478 22.3455C26.661 22.2292 26.2653 22.198 25.8652 22.2086C25.8562 22.0413 25.8472 21.8741 25.8382 21.7068C25.4158 21.7315 25.0552 21.8136 24.742 21.9398C24.7946 22.0942 24.8472 22.2486 24.8999 22.403C24.5607 22.5304 24.2056 22.7327 23.8341 23.0119C23.7302 22.8821 23.6264 22.7523 23.5226 22.6226C23.1969 22.8976 22.9417 23.1785 22.7716 23.4665C22.8957 23.5535 23.0439 23.6574 23.168 23.7444C22.9078 24.1794 22.7189 24.5461 22.653 24.8766C22.4943 24.8337 22.3355 24.7908 22.1767 24.7479C22.0719 25.1316 22.033 25.5115 22.0612 25.8875C22.2196 25.8842 22.3781 25.8809 22.5365 25.8775C22.5611 26.3047 22.6443 26.7109 22.7733 27.1008C22.6202 27.1614 22.467 27.222 22.3139 27.2826C22.4702 27.7057 22.6569 28.0339 22.8725 28.2726C23.0035 28.1732 23.1345 28.0739 23.2655 27.9745C23.5128 28.3071 23.8077 28.5901 24.1504 28.8234C24.0612 28.9641 23.9721 29.1047 23.8829 29.2454C24.2536 29.4862 24.5948 29.6399 24.9082 29.7119C24.9553 29.5525 25.0023 29.3932 25.0493 29.2338C25.4509 29.3699 25.8523 29.4168 26.2537 29.388C26.2625 29.5566 26.2713 29.7253 26.2802 29.8939C26.6784 29.8795 27.048 29.8048 27.3824 29.6554C27.3298 29.5027 27.2772 29.35 27.2245 29.1974C27.6346 29.0532 27.9973 28.842 28.3151 28.5677C28.4073 28.7007 28.4995 28.8336 28.5918 28.9666C28.8848 28.7457 29.1427 28.4722 29.362 28.141Z" fill="#CCCCCC" stroke="#CCCCCC" stroke-width="0.0356808" stroke-miterlimit="22.9256"/>
</g>
<defs>
<clipPath id="clip0_1_404">
<rect width="53" height="25" fill="white" transform="matrix(-1 0 0 1 53.5 -0.5)"/>
</clipPath>
</defs>
</svg>
